<?xml version="1.0" encoding="utf-8"?>
<!-- Generator: Adobe Illustrator 27.3.0, SVG Export Plug-In . SVG Version: 6.00 Build 0)  -->
<svg version="1.1" id="Layer_1" xmlns="http://www.w3.org/2000/svg" xmlns:xlink="http://www.w3.org/1999/xlink" x="0px" y="0px"
	 viewBox="0 0 245 280" style="enable-background:new 0 0 245 280;" xml:space="preserve">
<style type="text/css">
	.st0{fill:#FFFFFF;}
</style>
<g>
	<path class="st0" d="M78,276.4H9.1l-8.8-70.7h36.8c8.6,0,14.5-1.3,17.7-4c2.2-2.2,3.3-5.3,3.3-9.2V71H21.6V0.3h124.8v203.2
		c0,24.1-5.8,42.2-17.5,54.5C117.3,270.3,100.3,276.4,78,276.4z"/>
	<path class="st0" d="M211.2,210.9c9.8,0,18,3.2,24.5,9.6c6.5,6.4,9.8,14.7,9.8,25s-3.3,18.7-9.8,25c-6.5,6.4-14.7,9.6-24.5,9.6
		s-18-3.3-24.7-9.9s-9.9-14.8-9.9-24.7c0-10.3,3.3-18.6,9.9-25C193.2,214.1,201.4,210.9,211.2,210.9z"/>
</g>
</svg>
